<svg fill="none" height="16" viewBox="0 0 16 16" width="16" xmlns="http://www.w3.org/2000/svg"><g fill="#212121"><path d="m2 4.75c0-1.51878 1.23122-2.75 2.75-2.75h.5c.41421 0 .75.33579.75.75s-.33579.75-.75.75h-.5c-.69036 0-1.25.55964-1.25 1.25v.5c0 .41421-.33579.75-.75.75s-.75-.33579-.75-.75z"/><path d="m14 11.25c0 1.5188-1.2312 2.75-2.75 2.75h-.5c-.4142 0-.75-.3358-.75-.75s.3358-.75.75-.75h.5c.6904 0 1.25-.5596 1.25-1.25v-.5c0-.4142.3358-.75.75-.75s.75.3358.75.75z"/><path d="m14 4.75c0-1.51878-1.2312-2.75-2.75-2.75h-.5c-.4142 0-.75.33579-.75.75s.3358.75.75.75h.5c.6904 0 1.25.55964 1.25 1.25v.5c0 .41421.3358.75.75.75s.75-.33579.75-.75z"/><path d="m4.75 14c-1.51878 0-2.75-1.2312-2.75-2.75v-.5c0-.4142.33579-.75.75-.75s.75.3358.75.75v.5c0 .6904.55964 1.25 1.25 1.25h.5c.41421 0 .75.3358.75.75s-.33579.75-.75.75z"/><path d="m8 10c1.10457 0 2-.89543 2-2s-.89543-2-2-2-2 .89543-2 2 .89543 2 2 2z"/><path d="m5.25 6c.41421 0 .75-.33579.75-.75s-.33579-.75-.75-.75-.75.33579-.75.75.33579.75.75.75z"/></g></svg>